<mxfile host="Electron" modified="2024-03-11T12:18:41.019Z" agent="Mozilla/5.0 (X11; Linux x86_64) AppleWebKit/537.36 (KHTML, like Gecko) draw.io/22.0.2 Chrome/114.0.5735.289 Electron/25.8.4 Safari/537.36" etag="Hyp7hFMjLDoG8Jeoy-B5" version="22.0.2" type="device">
  <diagram name="Page-1" id="0bqO1OQPRsobWI5S4mI4">
    <mxGraphModel dx="1426" dy="852" grid="1" gridSize="10" guides="1" tooltips="1" connect="1" arrows="1" fold="1" page="1" pageScale="1" pageWidth="850" pageHeight="1100" math="0" shadow="0">
      <root>
        <mxCell id="0" />
        <mxCell id="1" parent="0" />
        <mxCell id="Ti5tGABKUoGPPkpoOAp7-1" value="IDLE" style="ellipse;whiteSpace=wrap;html=1;aspect=fixed;fillColor=none;" vertex="1" parent="1">
          <mxGeometry x="180" y="330" width="80" height="80" as="geometry" />
        </mxCell>
        <mxCell id="Ti5tGABKUoGPPkpoOAp7-2" value="rst_i" style="endArrow=classic;html=1;rounded=0;labelBackgroundColor=none;" edge="1" parent="1" target="Ti5tGABKUoGPPkpoOAp7-1">
          <mxGeometry x="0.0296" y="12" width="50" height="50" relative="1" as="geometry">
            <mxPoint x="120" y="310" as="sourcePoint" />
            <mxPoint x="140" y="230" as="targetPoint" />
            <mxPoint as="offset" />
          </mxGeometry>
        </mxCell>
        <mxCell id="Ti5tGABKUoGPPkpoOAp7-3" value="MUL" style="ellipse;whiteSpace=wrap;html=1;aspect=fixed;fillColor=none;" vertex="1" parent="1">
          <mxGeometry x="570" y="330" width="80" height="80" as="geometry" />
        </mxCell>
        <mxCell id="Ti5tGABKUoGPPkpoOAp7-4" value="SQRT_B" style="ellipse;whiteSpace=wrap;html=1;aspect=fixed;fillColor=none;" vertex="1" parent="1">
          <mxGeometry x="370" y="330" width="80" height="80" as="geometry" />
        </mxCell>
        <mxCell id="Ti5tGABKUoGPPkpoOAp7-5" value="start_i" style="curved=1;endArrow=classic;html=1;rounded=0;labelBackgroundColor=none;" edge="1" parent="1" source="Ti5tGABKUoGPPkpoOAp7-1" target="Ti5tGABKUoGPPkpoOAp7-4">
          <mxGeometry x="-0.0476" y="14" width="50" height="50" relative="1" as="geometry">
            <mxPoint x="290" y="310" as="sourcePoint" />
            <mxPoint x="340" y="260" as="targetPoint" />
            <Array as="points">
              <mxPoint x="290" y="290" />
              <mxPoint x="340" y="300" />
            </Array>
            <mxPoint as="offset" />
          </mxGeometry>
        </mxCell>
        <mxCell id="Ti5tGABKUoGPPkpoOAp7-7" value="!busy_sqrt" style="curved=1;endArrow=classic;html=1;rounded=0;labelBackgroundColor=none;" edge="1" parent="1" source="Ti5tGABKUoGPPkpoOAp7-4" target="Ti5tGABKUoGPPkpoOAp7-3">
          <mxGeometry x="-0.0476" y="14" width="50" height="50" relative="1" as="geometry">
            <mxPoint x="425" y="328" as="sourcePoint" />
            <mxPoint x="561" y="330" as="targetPoint" />
            <Array as="points">
              <mxPoint x="490" y="300" />
              <mxPoint x="540" y="300" />
            </Array>
            <mxPoint as="offset" />
          </mxGeometry>
        </mxCell>
        <mxCell id="Ti5tGABKUoGPPkpoOAp7-8" value="!busy_mul" style="curved=1;endArrow=classic;html=1;rounded=0;labelBackgroundColor=none;" edge="1" parent="1" source="Ti5tGABKUoGPPkpoOAp7-3" target="Ti5tGABKUoGPPkpoOAp7-1">
          <mxGeometry x="-0.0476" y="14" width="50" height="50" relative="1" as="geometry">
            <mxPoint x="390" y="490" as="sourcePoint" />
            <mxPoint x="526" y="492" as="targetPoint" />
            <Array as="points">
              <mxPoint x="510" y="490" />
              <mxPoint x="310" y="480" />
            </Array>
            <mxPoint as="offset" />
          </mxGeometry>
        </mxCell>
        <mxCell id="Ti5tGABKUoGPPkpoOAp7-9" value="busy_sqrt" style="curved=1;endArrow=classic;html=1;rounded=0;labelBackgroundColor=none;" edge="1" parent="1" source="Ti5tGABKUoGPPkpoOAp7-4" target="Ti5tGABKUoGPPkpoOAp7-4">
          <mxGeometry x="-0.0476" y="14" width="50" height="50" relative="1" as="geometry">
            <mxPoint x="370" y="270" as="sourcePoint" />
            <mxPoint x="506" y="272" as="targetPoint" />
            <Array as="points">
              <mxPoint x="380" y="270" />
              <mxPoint x="450" y="270" />
            </Array>
            <mxPoint as="offset" />
          </mxGeometry>
        </mxCell>
        <mxCell id="Ti5tGABKUoGPPkpoOAp7-10" value="busy_mul" style="curved=1;endArrow=classic;html=1;rounded=0;labelBackgroundColor=none;" edge="1" parent="1" source="Ti5tGABKUoGPPkpoOAp7-3" target="Ti5tGABKUoGPPkpoOAp7-3">
          <mxGeometry x="-0.1611" y="15" width="50" height="50" relative="1" as="geometry">
            <mxPoint x="630" y="328" as="sourcePoint" />
            <mxPoint x="766" y="330" as="targetPoint" />
            <Array as="points">
              <mxPoint x="674" y="278" />
              <mxPoint x="720" y="350" />
            </Array>
            <mxPoint as="offset" />
          </mxGeometry>
        </mxCell>
        <mxCell id="Ti5tGABKUoGPPkpoOAp7-11" value="!start_i" style="curved=1;endArrow=classic;html=1;rounded=0;labelBackgroundColor=none;" edge="1" parent="1" source="Ti5tGABKUoGPPkpoOAp7-1" target="Ti5tGABKUoGPPkpoOAp7-1">
          <mxGeometry x="-0.1243" y="28" width="50" height="50" relative="1" as="geometry">
            <mxPoint x="60" y="470" as="sourcePoint" />
            <mxPoint x="196" y="472" as="targetPoint" />
            <Array as="points">
              <mxPoint x="140" y="430" />
              <mxPoint x="130" y="370" />
            </Array>
            <mxPoint as="offset" />
          </mxGeometry>
        </mxCell>
      </root>
    </mxGraphModel>
  </diagram>
</mxfile>
